<svg fill="none" height="192" viewBox="0 0 192 192" width="192" xmlns="http://www.w3.org/2000/svg"><path d="m88.5667 48.9111v.5h.5 13.8663.5v-.5-43.9111-.5h-.5-13.8663-.5v.5zm45.2133 19.1313.353.3536.354-.3536 31.2-31.2.353-.3535-.353-.3536-9.822-9.8222-.354-.3535-.353.3535-31.2 31.2-.354.3536.354.3535zm8.809 34.8906v.5h.5 43.911.5v-.5-13.8663-.5h-.5-43.911-.5v.5zm12.569 62.754.353.353.354-.353 9.822-9.822.353-.354-.353-.353-31.2-31.2-.354-.354-.353.354-9.822 9.822-.354.353.354.354zm-66.5913 21.313v.5h.5 13.8663.5v-.5-43.911-.5h-.5-13.8663-.5v.5zm-52.4314-21.313.3536.353.3535-.353 31.2-31.2.3536-.354-.3536-.353-9.8222-9.822-.3535-.354-.3536.354-31.2 31.2-.3535.353.3535.354zm-31.6353-62.754v.5h.5 43.9111.5v-.5-13.8663-.5h-.5-43.9111-.5v.5zm53.0131-34.8906.3536.3536.3535-.3536 9.8222-9.8222.3536-.3535-.3536-.3536-31.2-31.2-.3535-.3535-.3536.3535-9.8222 9.8222-.3535.3536.3535.3535zm21.8377 56.6266c5.0392 2.985 10.5926 4.475 16.6492 4.475l16.649-4.475c5.032-2.98 9.04-6.988 12.02-12.02 2.985-5.039 4.475-10.592 4.475-16.649 0-6.1037-1.49-11.6577-4.475-16.6502-2.98-5.0308-6.988-9.0388-12.019-12.0184-4.992-2.9855-10.546-4.4758-16.65-4.4758-6.0566 0-11.61 1.4909-16.6492 4.4753-5.0313 2.9797-9.0396 6.9878-12.0194 12.0189-2.9855 4.9926-4.4758 10.5466-4.4758 16.6502 0 6.057 1.4909 11.61 4.4753 16.649 2.9799 5.032 6.9883 9.04 12.0199 12.02z" fill="#000" stroke="#fff"/></svg>